<?xml version="1.0" encoding="utf-8"?>
<!-- Generator: Adobe Illustrator 18.0.0, SVG Export Plug-In . SVG Version: 6.00 Build 0)  -->
<!DOCTYPE svg PUBLIC "-//W3C//DTD SVG 1.1//EN" "http://www.w3.org/Graphics/SVG/1.1/DTD/svg11.dtd">
<svg version="1.1" id="Layer_1" xmlns="http://www.w3.org/2000/svg" xmlns:xlink="http://www.w3.org/1999/xlink" x="0px" y="0px"
	 viewBox="0 0 64 64" enable-background="new 0 0 64 64" xml:space="preserve">
<g>
	<g>
		<g>
			<path fill="#EAEAEA" d="M32,0c17.7,0,32,14.3,32,32S49.7,64,32,64S0,49.7,0,32S14.3,0,32,0z"/>
		</g>
	</g>
	<g>
		<g>
			<path fill="#3E80C1" d="M38.5,23.1c8.8,0,16,5.4,16,12c0,2.9-1.4,5.6-3.7,7.7c0.3,1,0.8,2.3,1.8,3.5c0.6,0.7,0,1.7-0.9,1.6
				c-3-0.3-5.4-1.1-7.1-1.8c-1.9,0.6-4,0.9-6.2,0.9c-8.8,0-16-5.4-16-12C22.5,28.5,29.7,23.1,38.5,23.1z"/>
		</g>
	</g>
	<g>
		<g>
			<path fill="#60A1EF" d="M25.5,16c-8.8,0-16,5.4-16,12c0,2.9,1.4,5.6,3.7,7.7c-0.3,1-0.8,2.3-1.8,3.5c-0.6,0.7,0,1.7,0.9,1.6
				c3-0.3,5.4-1.1,7.1-1.8c1.9,0.6,4,0.9,6.2,0.9c8.8,0,16-5.4,16-12C41.5,21.4,34.3,16,25.5,16z"/>
		</g>
	</g>
	<g>
		<g>
			<circle fill="#FFFFFF" cx="18.5" cy="28" r="2"/>
		</g>
	</g>
	<g>
		<g>
			<circle fill="#FFFFFF" cx="25.5" cy="28" r="2"/>
		</g>
	</g>
	<g>
		<g>
			<circle fill="#FFFFFF" cx="32.5" cy="28" r="2"/>
		</g>
	</g>
</g>
</svg>
